<svg xmlns="http://www.w3.org/2000/svg" fill="none" viewBox="0 0 684 713" height="713" width="684">
<g filter="url(#filter0_d_1014_3841)" opacity="0.2">
<rect fill="white" rx="6" height="199" width="152" y="321" x="108"></rect>
</g>
<g filter="url(#filter1_d_1014_3841)" opacity="0.2">
<rect fill="white" rx="6" height="131" width="205" y="446" x="415"></rect>
</g>
<g filter="url(#filter2_d_1014_3841)" opacity="0.95">
<g filter="url(#filter3_d_1014_3841)">
<rect fill="white" rx="6" height="276.054" width="457.109" y="275" x="141"></rect>
<rect fill="#34D601" rx="6" height="244.76" width="201.173" y="288" x="383"></rect>
<rect fill="#34D601" rx="6" height="185" width="211" y="288" x="155"></rect>
<rect fill="#259A00" rx="6" height="27.4513" width="27.4513" y="300" x="166"></rect>
<rect fill="#E9E9E9" rx="2" height="4" width="35.1803" y="488.467" x="155.675"></rect>
<rect fill="#E9E9E9" rx="2" height="4" width="53.3035" y="488.467" x="192.855"></rect>
<rect fill="#E9E9E9" rx="2" height="4" width="12.5263" y="488.467" x="248.158"></rect>
<rect fill="#E9E9E9" rx="2" height="4" width="18.6562" y="488.467" x="262.685"></rect>
<rect fill="#E9E9E9" rx="2" height="4" width="82.3539" y="488.467" x="283.341"></rect>
<rect fill="#E9E9E9" rx="2" height="4" width="53.3035" y="498.863" x="155.675"></rect>
<rect fill="#E9E9E9" rx="2" height="4" width="12.5263" y="498.863" x="210.978"></rect>
<rect fill="#E9E9E9" rx="2" height="4" width="82.3539" y="498.863" x="225.504"></rect>
<rect fill="#E9E9E9" rx="2" height="4" width="35.1803" y="498.863" x="309.858"></rect>
<rect fill="#E9E9E9" rx="2" height="4" width="18.6562" y="498.863" x="347.039"></rect>
<rect fill="#E9E9E9" rx="2" height="4" width="82.3539" y="509.259" x="155.675"></rect>
<rect fill="#E9E9E9" rx="2" height="4" width="12.5263" y="509.259" x="240.029"></rect>
<rect fill="#E9E9E9" rx="2" height="4" width="53.3035" y="509.259" x="254.555"></rect>
<rect fill="#E9E9E9" rx="2" height="4" width="35.1803" y="509.259" x="309.858"></rect>
<rect fill="#E9E9E9" rx="2" height="4" width="18.6562" y="509.259" x="347.039"></rect>
<rect fill="#E9E9E9" rx="2" height="4" width="12.5263" y="519.656" x="155.675"></rect>
<rect fill="#E9E9E9" rx="2" height="4" width="53.3035" y="519.656" x="170.201"></rect>
<rect fill="#E9E9E9" rx="2" height="4" width="35.1803" y="519.656" x="225.504"></rect>
<rect fill="#E9E9E9" rx="2" height="4" width="18.6562" y="519.656" x="262.685"></rect>
<rect fill="#E9E9E9" rx="2" height="4" width="82.3539" y="519.656" x="283.341"></rect>
<rect fill="#E9E9E9" rx="2" height="4" width="53.3035" y="530.052" x="155.675"></rect>
<rect fill="#E9E9E9" rx="2" height="4" width="35.1803" y="530.052" x="210.978"></rect>
<rect fill="#E9E9E9" rx="2" height="4" width="18.6562" y="530.052" x="248.158"></rect>
<rect fill="#E9E9E9" rx="2" height="4" width="82.3539" y="530.052" x="268.814"></rect>
<rect fill="#E9E9E9" rx="2" height="4" width="12.5263" y="530.052" x="353.168"></rect>
</g>
</g>
<g filter="url(#filter4_d_1014_3841)" opacity="0.25">
<rect fill="white" rx="5" height="10" width="10" y="297" x="565"></rect>
<rect fill="white" rx="5" height="23.125" width="10" y="312" x="565"></rect>
<rect fill="white" rx="5" height="75" width="10" y="340.125" x="565"></rect>
<rect fill="white" rx="5" height="103" width="10" y="420.125" x="565"></rect>
</g>
<g filter="url(#filter5_d_1014_3841)" opacity="0.25">
<rect fill="white" rx="6" height="343" width="267" y="94" x="272"></rect>
</g>
<g filter="url(#filter6_d_1014_3841)" opacity="0.95">
<g clip-path="url(#clip0_1014_3841)">
<rect fill="white" rx="6" height="220" width="340" y="166" x="95"></rect>
<rect fill="#34D601" height="18" width="340" y="166" x="95"></rect>
<circle fill-opacity="0.1" fill="#20231F" r="3" cy="175" cx="104"></circle>
<circle fill-opacity="0.1" fill="#20231F" r="3" cy="175" cx="114"></circle>
<circle fill-opacity="0.1" fill="#20231F" r="3" cy="175" cx="124"></circle>
<rect fill="#34D601" rx="1.90414" height="27" width="27" y="190" x="99"></rect>
<rect fill="#E9E9E9" rx="2" height="4" width="32" y="192" x="190"></rect>
<rect fill="#E9E9E9" rx="2" height="4" width="24" y="199" x="190"></rect>
<rect fill="#E9E9E9" rx="2" height="4" width="44" y="199" x="216"></rect>
<rect fill="#E9E9E9" rx="2" height="4" width="16" y="199" x="262"></rect>
<rect fill="#E9E9E9" rx="2" height="4" width="32" y="192" x="335"></rect>
<rect fill="#E9E9E9" rx="2" height="4" width="24" y="199" x="335"></rect>
<rect fill="#E9E9E9" rx="2" height="4" width="44" y="199" x="361"></rect>
<rect fill="#E9E9E9" rx="2" height="4" width="16" y="199" x="407"></rect>
<path fill="#E9E9E9" d="M180.49 225.132C180.49 223.955 179.535 223 178.358 223H155.132C153.955 223 153 223.955 153 225.132V233.868C153 235.045 152.045 236 150.868 236H101.132C99.9546 236 99 236.955 99 238.132V371.391C99 372.568 99.9546 373.523 101.132 373.523H424.951C426.128 373.523 427.083 372.568 427.083 371.391V238.132C427.083 236.955 426.128 236 424.951 236H182.622C181.445 236 180.49 235.045 180.49 233.868V225.132Z" clip-rule="evenodd" fill-rule="evenodd"></path>
<g filter="url(#filter7_d_1014_3841)">
<path fill="#CACACA" d="M153.49 225.132C153.49 223.955 152.535 223 151.358 223H128.132C126.955 223 126 223.955 126 225.132V233.868C126 235.045 125.045 236 123.868 236H101.132C99.9546 236 99 236.955 99 238.132V371.391C99 372.568 99.9546 373.523 101.132 373.523H424.951C426.128 373.523 427.083 372.568 427.083 371.391V238.132C427.083 236.955 426.128 236 424.951 236H155.622C154.445 236 153.49 235.045 153.49 233.868V225.132Z" clip-rule="evenodd" fill-rule="evenodd"></path>
</g>
<g filter="url(#filter8_d_1014_3841)">
<path fill="#34D601" d="M126.49 225.132C126.49 223.955 125.535 223 124.358 223H101.132C99.9546 223 99 223.955 99 225.132V236V258.344V379.868C99 381.045 99.9546 382 101.132 382H428.868C430.045 382 431 381.045 431 379.868V238.132C431 236.955 430.045 236 428.868 236H128.622C127.445 236 126.49 235.045 126.49 233.868V225.132Z" clip-rule="evenodd" fill-rule="evenodd"></path>
</g>
<g opacity="0.05">
<rect fill="#20231F" rx="2.13214" height="4.26428" width="35.1803" y="247" x="107"></rect>
<rect fill="#20231F" rx="2.13214" height="4.26428" width="53.3035" y="247" x="144.18"></rect>
<rect fill="#20231F" rx="2.13214" height="4.26428" width="12.5263" y="247" x="199.484"></rect>
<rect fill="#20231F" rx="2.13214" height="4.26428" width="18.6562" y="247" x="214.01"></rect>
<rect fill="#20231F" rx="2.13214" height="4.26428" width="82.3539" y="247" x="234.666"></rect>
<rect fill="#20231F" rx="2.13214" height="4.26428" width="53.3035" y="255.264" x="107"></rect>
<rect fill="#20231F" rx="2.13214" height="4.26428" width="12.5263" y="255.264" x="162.303"></rect>
<rect fill="#20231F" rx="2.13214" height="4.26428" width="82.3539" y="255.264" x="176.83"></rect>
<rect fill="#20231F" rx="2.13214" height="4.26428" width="35.1803" y="255.264" x="261.184"></rect>
<rect fill="#20231F" rx="2.13214" height="4.26428" width="18.6562" y="255.264" x="298.364"></rect>
<rect fill="#20231F" rx="2.13214" height="4.26428" width="82.3539" y="263.529" x="107"></rect>
<rect fill="#20231F" rx="2.13214" height="4.26428" width="12.5263" y="263.529" x="191.354"></rect>
<rect fill="#20231F" rx="2.13214" height="4.26428" width="53.3035" y="263.529" x="205.88"></rect>
<rect fill="#20231F" rx="2.13214" height="4.26428" width="35.1803" y="263.529" x="261.184"></rect>
<rect fill="#20231F" rx="2.13214" height="4.26428" width="18.6562" y="263.529" x="298.364"></rect>
<rect fill="#20231F" rx="2.13214" height="4.26428" width="12.5263" y="271.793" x="107"></rect>
<rect fill="#20231F" rx="2.13214" height="4.26428" width="53.3035" y="271.793" x="121.526"></rect>
<rect fill="#20231F" rx="2.13214" height="4.26428" width="35.1803" y="271.793" x="176.83"></rect>
<rect fill="#20231F" rx="2.13214" height="4.26428" width="18.6562" y="271.793" x="214.01"></rect>
<rect fill="#20231F" rx="2.13214" height="4.26428" width="82.3539" y="271.793" x="234.666"></rect>
<rect fill="#20231F" rx="2.13214" height="4.26428" width="53.3035" y="280.057" x="107"></rect>
<rect fill="#20231F" rx="2.13214" height="4.26428" width="35.1803" y="280.057" x="162.303"></rect>
<rect fill="#20231F" rx="2.13214" height="4.26428" width="18.6562" y="280.057" x="199.484"></rect>
<rect fill="#20231F" rx="2.13214" height="4.26428" width="82.3539" y="280.057" x="220.14"></rect>
<rect fill="#20231F" rx="2.13214" height="4.26428" width="12.5263" y="280.057" x="304.494"></rect>
</g>
</g>
</g>
<rect fill="#20231F" rx="2" height="4" width="191" y="459" x="165" opacity="0.05"></rect>
<rect fill="#20231F" rx="2" height="4" width="191" y="451" x="165" opacity="0.05"></rect>
<rect fill="#20231F" rx="2" height="4" width="191" y="443" x="165" opacity="0.05"></rect>
<defs>
<filter color-interpolation-filters="sRGB" filterUnits="userSpaceOnUse" height="211" width="164" y="315" x="102" id="filter0_d_1014_3841">
<feFlood result="BackgroundImageFix" flood-opacity="0"></feFlood>
<feColorMatrix result="hardAlpha" values="0 0 0 0 0 0 0 0 0 0 0 0 0 0 0 0 0 0 127 0" type="matrix" in="SourceAlpha"></feColorMatrix>
<feOffset></feOffset>
<feGaussianBlur stdDeviation="3"></feGaussianBlur>
<feComposite operator="out" in2="hardAlpha"></feComposite>
<feColorMatrix values="0 0 0 0 0 0 0 0 0 0 0 0 0 0 0 0 0 0 0.12 0" type="matrix"></feColorMatrix>
<feBlend result="effect1_dropShadow_1014_3841" in2="BackgroundImageFix" mode="normal"></feBlend>
<feBlend result="shape" in2="effect1_dropShadow_1014_3841" in="SourceGraphic" mode="normal"></feBlend>
</filter>
<filter color-interpolation-filters="sRGB" filterUnits="userSpaceOnUse" height="143" width="217" y="440" x="409" id="filter1_d_1014_3841">
<feFlood result="BackgroundImageFix" flood-opacity="0"></feFlood>
<feColorMatrix result="hardAlpha" values="0 0 0 0 0 0 0 0 0 0 0 0 0 0 0 0 0 0 127 0" type="matrix" in="SourceAlpha"></feColorMatrix>
<feOffset></feOffset>
<feGaussianBlur stdDeviation="3"></feGaussianBlur>
<feComposite operator="out" in2="hardAlpha"></feComposite>
<feColorMatrix values="0 0 0 0 0 0 0 0 0 0 0 0 0 0 0 0 0 0 0.12 0" type="matrix"></feColorMatrix>
<feBlend result="effect1_dropShadow_1014_3841" in2="BackgroundImageFix" mode="normal"></feBlend>
<feBlend result="shape" in2="effect1_dropShadow_1014_3841" in="SourceGraphic" mode="normal"></feBlend>
</filter>
<filter color-interpolation-filters="sRGB" filterUnits="userSpaceOnUse" height="296.054" width="477.109" y="265" x="131" id="filter2_d_1014_3841">
<feFlood result="BackgroundImageFix" flood-opacity="0"></feFlood>
<feColorMatrix result="hardAlpha" values="0 0 0 0 0 0 0 0 0 0 0 0 0 0 0 0 0 0 127 0" type="matrix" in="SourceAlpha"></feColorMatrix>
<feOffset></feOffset>
<feGaussianBlur stdDeviation="5"></feGaussianBlur>
<feComposite operator="out" in2="hardAlpha"></feComposite>
<feColorMatrix values="0 0 0 0 0 0 0 0 0 0 0 0 0 0 0 0 0 0 0.1 0" type="matrix"></feColorMatrix>
<feBlend result="effect1_dropShadow_1014_3841" in2="BackgroundImageFix" mode="normal"></feBlend>
<feBlend result="shape" in2="effect1_dropShadow_1014_3841" in="SourceGraphic" mode="normal"></feBlend>
</filter>
<filter color-interpolation-filters="sRGB" filterUnits="userSpaceOnUse" height="285.713" width="466.769" y="270.17" x="136.17" id="filter3_d_1014_3841">
<feFlood result="BackgroundImageFix" flood-opacity="0"></feFlood>
<feColorMatrix result="hardAlpha" values="0 0 0 0 0 0 0 0 0 0 0 0 0 0 0 0 0 0 127 0" type="matrix" in="SourceAlpha"></feColorMatrix>
<feOffset></feOffset>
<feGaussianBlur stdDeviation="2.41497"></feGaussianBlur>
<feComposite operator="out" in2="hardAlpha"></feComposite>
<feColorMatrix values="0 0 0 0 0 0 0 0 0 0 0 0 0 0 0 0 0 0 0.12 0" type="matrix"></feColorMatrix>
<feBlend result="effect1_dropShadow_1014_3841" in2="BackgroundImageFix" mode="normal"></feBlend>
<feBlend result="shape" in2="effect1_dropShadow_1014_3841" in="SourceGraphic" mode="normal"></feBlend>
</filter>
<filter color-interpolation-filters="sRGB" filterUnits="userSpaceOnUse" height="238.625" width="22.5" y="290.75" x="558.75" id="filter4_d_1014_3841">
<feFlood result="BackgroundImageFix" flood-opacity="0"></feFlood>
<feColorMatrix result="hardAlpha" values="0 0 0 0 0 0 0 0 0 0 0 0 0 0 0 0 0 0 127 0" type="matrix" in="SourceAlpha"></feColorMatrix>
<feOffset></feOffset>
<feGaussianBlur stdDeviation="3.125"></feGaussianBlur>
<feComposite operator="out" in2="hardAlpha"></feComposite>
<feColorMatrix values="0 0 0 0 0 0 0 0 0 0 0 0 0 0 0 0 0 0 0.02 0" type="matrix"></feColorMatrix>
<feBlend result="effect1_dropShadow_1014_3841" in2="BackgroundImageFix" mode="normal"></feBlend>
<feBlend result="shape" in2="effect1_dropShadow_1014_3841" in="SourceGraphic" mode="normal"></feBlend>
</filter>
<filter color-interpolation-filters="sRGB" filterUnits="userSpaceOnUse" height="355" width="279" y="88" x="266" id="filter5_d_1014_3841">
<feFlood result="BackgroundImageFix" flood-opacity="0"></feFlood>
<feColorMatrix result="hardAlpha" values="0 0 0 0 0 0 0 0 0 0 0 0 0 0 0 0 0 0 127 0" type="matrix" in="SourceAlpha"></feColorMatrix>
<feOffset></feOffset>
<feGaussianBlur stdDeviation="3"></feGaussianBlur>
<feComposite operator="out" in2="hardAlpha"></feComposite>
<feColorMatrix values="0 0 0 0 0 0 0 0 0 0 0 0 0 0 0 0 0 0 0.12 0" type="matrix"></feColorMatrix>
<feBlend result="effect1_dropShadow_1014_3841" in2="BackgroundImageFix" mode="normal"></feBlend>
<feBlend result="shape" in2="effect1_dropShadow_1014_3841" in="SourceGraphic" mode="normal"></feBlend>
</filter>
<filter color-interpolation-filters="sRGB" filterUnits="userSpaceOnUse" height="240" width="360" y="156" x="85" id="filter6_d_1014_3841">
<feFlood result="BackgroundImageFix" flood-opacity="0"></feFlood>
<feColorMatrix result="hardAlpha" values="0 0 0 0 0 0 0 0 0 0 0 0 0 0 0 0 0 0 127 0" type="matrix" in="SourceAlpha"></feColorMatrix>
<feOffset></feOffset>
<feGaussianBlur stdDeviation="5"></feGaussianBlur>
<feComposite operator="out" in2="hardAlpha"></feComposite>
<feColorMatrix values="0 0 0 0 0 0 0 0 0 0 0 0 0 0 0 0 0 0 0.1 0" type="matrix"></feColorMatrix>
<feBlend result="effect1_dropShadow_1014_3841" in2="BackgroundImageFix" mode="normal"></feBlend>
<feBlend result="shape" in2="effect1_dropShadow_1014_3841" in="SourceGraphic" mode="normal"></feBlend>
</filter>
<filter color-interpolation-filters="sRGB" filterUnits="userSpaceOnUse" height="170.523" width="348.083" y="213" x="89" id="filter7_d_1014_3841">
<feFlood result="BackgroundImageFix" flood-opacity="0"></feFlood>
<feColorMatrix result="hardAlpha" values="0 0 0 0 0 0 0 0 0 0 0 0 0 0 0 0 0 0 127 0" type="matrix" in="SourceAlpha"></feColorMatrix>
<feOffset></feOffset>
<feGaussianBlur stdDeviation="5"></feGaussianBlur>
<feComposite operator="out" in2="hardAlpha"></feComposite>
<feColorMatrix values="0 0 0 0 0 0 0 0 0 0 0 0 0 0 0 0 0 0 0.02 0" type="matrix"></feColorMatrix>
<feBlend result="effect1_dropShadow_1014_3841" in2="BackgroundImageFix" mode="normal"></feBlend>
<feBlend result="shape" in2="effect1_dropShadow_1014_3841" in="SourceGraphic" mode="normal"></feBlend>
</filter>
<filter color-interpolation-filters="sRGB" filterUnits="userSpaceOnUse" height="179" width="352" y="213" x="89" id="filter8_d_1014_3841">
<feFlood result="BackgroundImageFix" flood-opacity="0"></feFlood>
<feColorMatrix result="hardAlpha" values="0 0 0 0 0 0 0 0 0 0 0 0 0 0 0 0 0 0 127 0" type="matrix" in="SourceAlpha"></feColorMatrix>
<feOffset></feOffset>
<feGaussianBlur stdDeviation="5"></feGaussianBlur>
<feComposite operator="out" in2="hardAlpha"></feComposite>
<feColorMatrix values="0 0 0 0 0 0 0 0 0 0 0 0 0 0 0 0 0 0 0.02 0" type="matrix"></feColorMatrix>
<feBlend result="effect1_dropShadow_1014_3841" in2="BackgroundImageFix" mode="normal"></feBlend>
<feBlend result="shape" in2="effect1_dropShadow_1014_3841" in="SourceGraphic" mode="normal"></feBlend>
</filter>
<clipPath id="clip0_1014_3841">
<rect fill="white" rx="6" height="220" width="340" y="166" x="95"></rect>
</clipPath>
</defs>
</svg>
